<svg width="168" height="38" viewBox="0 0 168 38" fill="none" xmlns="http://www.w3.org/2000/svg">
<g filter="url(#filter0_d_34_4)">
<path d="M8.87562 3.29559C11.0298 1.33372 13.9549 0.188585 16.9195 0.0461529C17.9342 0.0461529 18.9518 0.0519279 19.9665 0.0432129C19.9147 1.08088 19.9665 2.12137 19.936 3.15898C19.7928 5.47838 18.8939 7.74544 17.3796 9.56488C15.4113 12.0122 12.4009 13.6543 9.20469 14.0787C7.80919 14.2938 6.39232 14.1572 4.98774 14.195C5.0121 13.0527 4.93592 11.9076 5.03037 10.7682C5.30463 7.9431 6.70317 5.23714 8.87562 3.29559Z" fill="#81818B"/>
<path d="M9.20881 3.6684L9.20882 3.66841L9.21229 3.66526C11.2713 1.79005 14.0784 0.685918 16.9316 0.546153C17.2149 0.546166 17.4991 0.546626 17.7839 0.547088C18.3376 0.547984 18.8935 0.548885 19.4486 0.546505C19.4408 0.90232 19.4415 1.2557 19.4433 1.60368C19.4436 1.66356 19.4439 1.72324 19.4443 1.78276C19.4469 2.24096 19.4494 2.68896 19.4365 3.1362C19.2983 5.34584 18.4404 7.50871 16.9953 9.24502L16.9953 9.24498L16.99 9.25152C15.1065 11.5934 12.2147 13.1747 9.13888 13.5831L9.13886 13.583L9.12854 13.5846C8.46971 13.6861 7.79748 13.7058 7.10143 13.7033C6.8755 13.7025 6.64379 13.6992 6.40908 13.6959C6.10679 13.6916 5.7995 13.6873 5.49312 13.688C5.49345 13.4128 5.49025 13.1441 5.48708 12.8792C5.47875 12.1821 5.47074 11.5108 5.52837 10.813C5.79086 8.11881 7.12733 5.52865 9.20881 3.6684Z" stroke="black"/>
<path d="M9.20881 3.6684L9.20882 3.66841L9.21229 3.66526C11.2713 1.79005 14.0784 0.685918 16.9316 0.546153C17.2149 0.546166 17.4991 0.546626 17.7839 0.547088C18.3376 0.547984 18.8935 0.548885 19.4486 0.546505C19.4408 0.90232 19.4415 1.2557 19.4433 1.60368C19.4436 1.66356 19.4439 1.72324 19.4443 1.78276C19.4469 2.24096 19.4494 2.68896 19.4365 3.1362C19.2983 5.34584 18.4404 7.50871 16.9953 9.24502L16.9953 9.24498L16.99 9.25152C15.1065 11.5934 12.2147 13.1747 9.13888 13.5831L9.13886 13.583L9.12854 13.5846C8.46971 13.6861 7.79748 13.7058 7.10143 13.7033C6.8755 13.7025 6.64379 13.6992 6.40908 13.6959C6.10679 13.6916 5.7995 13.6873 5.49312 13.688C5.49345 13.4128 5.49025 13.1441 5.48708 12.8792C5.47875 12.1821 5.47074 11.5108 5.52837 10.813C5.79086 8.11881 7.12733 5.52865 9.20881 3.6684Z" stroke="black" stroke-opacity="0.2"/>
</g>
<g filter="url(#filter1_d_34_4)">
<path d="M20.9061 0.0432129C21.9939 0.0548679 23.0816 0.0374383 24.1724 0.0490408C26.8872 0.232108 29.5655 1.22614 31.6098 2.94977C33.8645 4.79536 35.4096 7.43448 35.8054 10.2538C35.9792 11.5617 35.8695 12.8841 35.9367 14.1978C34.9859 14.195 34.0383 14.1921 33.0875 14.1978C30.7507 14.1368 28.4533 13.416 26.4972 12.2011C25.5953 11.5849 24.669 10.9601 23.9926 10.1055C22.5088 8.52438 21.5002 6.53925 21.1194 4.4466C20.8329 2.99329 20.9487 1.51101 20.9061 0.0432129Z" fill="#81818B"/>
<path d="M31.2875 3.33203L31.2875 3.33207L31.2931 3.33668C33.4565 5.10752 34.9324 7.63531 35.31 10.3215C35.3923 10.9417 35.4084 11.5723 35.411 12.2256C35.4116 12.3728 35.4115 12.5217 35.4115 12.6721C35.4112 13.0087 35.411 13.3521 35.4186 13.6963C34.6442 13.6942 33.8696 13.6931 33.0926 13.6978C30.8549 13.6379 28.6501 12.9474 26.7702 11.7821L26.7573 11.7732C25.8492 11.1528 25.0002 10.5728 24.3847 9.7952L24.3716 9.7787L24.3572 9.76336C22.9378 8.25087 21.9745 6.35294 21.6113 4.35706L21.6113 4.35705L21.6099 4.34991C21.4145 3.3585 21.416 2.37635 21.4176 1.34034C21.418 1.07956 21.4184 0.815376 21.4157 0.546769C21.7911 0.548139 22.1659 0.54714 22.539 0.546146L22.5394 0.546145C23.0795 0.544706 23.616 0.543278 24.1528 0.548862C26.7683 0.728039 29.3366 1.68717 31.2875 3.33203Z" stroke="black"/>
<path d="M31.2875 3.33203L31.2875 3.33207L31.2931 3.33668C33.4565 5.10752 34.9324 7.63531 35.31 10.3215C35.3923 10.9417 35.4084 11.5723 35.411 12.2256C35.4116 12.3728 35.4115 12.5217 35.4115 12.6721C35.4112 13.0087 35.411 13.3521 35.4186 13.6963C34.6442 13.6942 33.8696 13.6931 33.0926 13.6978C30.8549 13.6379 28.6501 12.9474 26.7702 11.7821L26.7573 11.7732C25.8492 11.1528 25.0002 10.5728 24.3847 9.7952L24.3716 9.7787L24.3572 9.76336C22.9378 8.25087 21.9745 6.35294 21.6113 4.35706L21.6113 4.35705L21.6099 4.34991C21.4145 3.3585 21.416 2.37635 21.4176 1.34034C21.418 1.07956 21.4184 0.815376 21.4157 0.546769C21.7911 0.548139 22.1659 0.54714 22.539 0.546146L22.5394 0.546145C23.0795 0.544706 23.616 0.543278 24.1528 0.548862C26.7683 0.728039 29.3366 1.68717 31.2875 3.33203Z" stroke="black" stroke-opacity="0.2"/>
</g>
<g filter="url(#filter2_d_34_4)">
<path d="M4.98978 15.0291C5.95567 15.0813 6.92461 14.9854 7.88741 15.0872C12.0099 15.1714 16.0106 17.3804 18.1464 20.7432C19.3714 22.6266 20.0295 24.8589 19.9442 27.0763C19.9411 27.8035 19.9533 28.5269 19.932 29.2509C18.4024 29.2068 16.8576 29.326 15.3432 29.044C11.9795 28.5038 8.88685 26.5939 7.0251 23.8677C5.61437 21.8854 4.91055 19.4644 4.98369 17.0723C4.98369 16.3892 4.98369 15.7091 4.98978 15.0291Z" fill="#81818B"/>
<path d="M5.48623 15.5446C5.74175 15.5476 5.99473 15.5447 6.24084 15.5418C6.30934 15.541 6.3773 15.5402 6.44464 15.5395C6.9266 15.5348 7.3845 15.5368 7.83486 15.5844L7.85597 15.5866L7.87719 15.5871C11.8389 15.668 15.6818 17.7953 17.7244 21.0113L17.7243 21.0113L17.7273 21.0158C18.8998 22.8186 19.5256 24.9499 19.4446 27.0571L19.4442 27.0656L19.4442 27.0741C19.4432 27.3093 19.4437 27.5407 19.4443 27.7699C19.4451 28.0967 19.4458 28.419 19.4421 28.7413C19.1407 28.738 18.8443 28.7387 18.5518 28.7393C17.4817 28.7417 16.4628 28.7439 15.4348 28.5525L15.4348 28.5523L15.4225 28.5504C12.1873 28.0308 9.2184 26.1928 7.438 23.5857L7.43808 23.5857L7.43246 23.5778C6.08684 21.687 5.41356 19.3737 5.48345 17.0876L5.48369 17.0799V17.0723C5.48369 16.5607 5.48369 16.0522 5.48623 15.5446Z" stroke="black"/>
<path d="M5.48623 15.5446C5.74175 15.5476 5.99473 15.5447 6.24084 15.5418C6.30934 15.541 6.3773 15.5402 6.44464 15.5395C6.9266 15.5348 7.3845 15.5368 7.83486 15.5844L7.85597 15.5866L7.87719 15.5871C11.8389 15.668 15.6818 17.7953 17.7244 21.0113L17.7243 21.0113L17.7273 21.0158C18.8998 22.8186 19.5256 24.9499 19.4446 27.0571L19.4442 27.0656L19.4442 27.0741C19.4432 27.3093 19.4437 27.5407 19.4443 27.7699C19.4451 28.0967 19.4458 28.419 19.4421 28.7413C19.1407 28.738 18.8443 28.7387 18.5518 28.7393C17.4817 28.7417 16.4628 28.7439 15.4348 28.5525L15.4348 28.5523L15.4225 28.5504C12.1873 28.0308 9.2184 26.1928 7.438 23.5857L7.43808 23.5857L7.43246 23.5778C6.08684 21.687 5.41356 19.3737 5.48345 17.0876L5.48369 17.0799V17.0723C5.48369 16.5607 5.48369 16.0522 5.48623 15.5446Z" stroke="black" stroke-opacity="0.2"/>
</g>
<g filter="url(#filter3_d_34_4)">
<path d="M30.7884 15.337C32.446 14.9853 34.1548 15.0434 35.8401 15.0434L35.9136 15.1132C35.8768 16.6333 36.0018 18.1708 35.6821 19.6735C35.0085 23.045 32.6686 26.0559 29.5209 27.7097C27.5617 28.7506 25.3131 29.2619 23.0736 29.2388C22.3576 29.242 21.6385 29.2273 20.9225 29.2472C20.9225 27.9888 20.8676 26.7248 21.0169 25.4717C21.3643 22.4404 23.0827 19.6182 25.5538 17.7116C27.0833 16.5606 28.8811 15.7265 30.7884 15.337Z" fill="#81818B"/>
<path d="M30.8884 15.8269L30.8884 15.8269L30.8922 15.8261C32.2878 15.53 33.7214 15.5357 35.2069 15.5417C35.2734 15.542 35.34 15.5422 35.4067 15.5425C35.4043 15.8267 35.4055 16.1062 35.4066 16.382C35.4112 17.4822 35.4155 18.5239 35.193 19.5694L35.193 19.5694L35.1918 19.5755C34.5497 22.7893 32.3116 25.6787 29.2884 27.2671L29.2863 27.2681C27.406 28.2671 25.2407 28.7611 23.0788 28.7388L23.0788 28.7388L23.0714 28.7388C22.8371 28.7398 22.5979 28.7389 22.3561 28.7379C22.0466 28.7367 21.733 28.7354 21.4202 28.7383C21.4194 28.6335 21.4185 28.5292 21.4175 28.4253C21.4085 27.4367 21.3999 26.4838 21.5134 25.5309L21.5137 25.5286C21.8439 22.6465 23.4823 19.9425 25.8568 18.1093C27.3292 17.0019 29.058 16.2006 30.8884 15.8269ZM21.0169 25.4717L21.017 25.4717L21.0169 25.4717Z" stroke="black"/>
<path d="M30.8884 15.8269L30.8884 15.8269L30.8922 15.8261C32.2878 15.53 33.7214 15.5357 35.2069 15.5417C35.2734 15.542 35.34 15.5422 35.4067 15.5425C35.4043 15.8267 35.4055 16.1062 35.4066 16.382C35.4112 17.4822 35.4155 18.5239 35.193 19.5694L35.193 19.5694L35.1918 19.5755C34.5497 22.7893 32.3116 25.6787 29.2884 27.2671L29.2863 27.2681C27.406 28.2671 25.2407 28.7611 23.0788 28.7388L23.0788 28.7388L23.0714 28.7388C22.8371 28.7398 22.5979 28.7389 22.3561 28.7379C22.0466 28.7367 21.733 28.7354 21.4202 28.7383C21.4194 28.6335 21.4185 28.5292 21.4175 28.4253C21.4085 27.4367 21.3999 26.4838 21.5134 25.5309L21.5137 25.5286C21.8439 22.6465 23.4823 19.9425 25.8568 18.1093C27.3292 17.0019 29.058 16.2006 30.8884 15.8269ZM21.0169 25.4717L21.017 25.4717L21.0169 25.4717Z" stroke="black" stroke-opacity="0.2"/>
</g>
<g filter="url(#filter4_d_34_4)">
<path d="M48.4217 23.6211C48.4217 24.1328 48.2359 24.5657 47.8652 24.92C47.514 25.2547 47.0704 25.422 46.5344 25.422C46.0183 25.422 45.5852 25.2547 45.2345 24.92C44.8838 24.5657 44.7084 24.1328 44.7084 23.6211V5.37753C44.7084 4.86581 44.8838 4.44272 45.2345 4.10819C45.6056 3.75392 46.0598 3.57678 46.5963 3.57678C47.1323 3.57678 47.5654 3.75392 47.8957 4.10819C48.2464 4.44272 48.4217 4.86581 48.4217 5.37753V23.6211Z" fill="#81818B"/>
<path d="M45.5796 4.46998L45.5797 4.46988C45.8532 4.20882 46.1818 4.07678 46.5963 4.07678C47.0101 4.07678 47.3049 4.20772 47.5299 4.44911L47.5399 4.45985L47.5506 4.46998C47.7963 4.70443 47.9217 4.99399 47.9217 5.37753V23.6211C47.9217 23.9954 47.7924 24.2978 47.5201 24.5583C47.272 24.7946 46.9565 24.922 46.5344 24.922C46.1405 24.922 45.8352 24.7999 45.5848 24.5632C45.3328 24.3062 45.2084 24.0024 45.2084 23.6211V5.37753C45.2084 4.99398 45.3338 4.70442 45.5796 4.46998Z" stroke="black"/>
<path d="M45.5796 4.46998L45.5797 4.46988C45.8532 4.20882 46.1818 4.07678 46.5963 4.07678C47.0101 4.07678 47.3049 4.20772 47.5299 4.44911L47.5399 4.45985L47.5506 4.46998C47.7963 4.70443 47.9217 4.99399 47.9217 5.37753V23.6211C47.9217 23.9954 47.7924 24.2978 47.5201 24.5583C47.272 24.7946 46.9565 24.922 46.5344 24.922C46.1405 24.922 45.8352 24.7999 45.5848 24.5632C45.3328 24.3062 45.2084 24.0024 45.2084 23.6211V5.37753C45.2084 4.99398 45.3338 4.70442 45.5796 4.46998Z" stroke="black" stroke-opacity="0.2"/>
</g>
<g filter="url(#filter5_d_34_4)">
<path d="M63.3275 9.62842C63.8636 9.62842 64.3072 9.8055 64.6584 10.1598C65.0086 10.4943 65.1839 10.9174 65.1839 11.4291V18.9273C65.1839 21.0134 64.5754 22.6665 63.3585 23.8867C62.141 25.1069 60.3875 25.7168 58.0969 25.7168C55.8074 25.7168 54.0534 25.1069 52.8365 23.8867C51.64 22.6665 51.0415 21.0134 51.0415 18.9273V11.4291C51.0415 10.9174 51.2168 10.4943 51.5675 10.1598C51.9182 9.8055 52.3618 9.62842 52.8984 9.62842C53.4349 9.62842 53.878 9.8055 54.2287 10.1598C54.58 10.4943 54.7553 10.9174 54.7553 11.4291V18.9273C54.7553 20.1278 55.0341 21.0232 55.5906 21.6136C56.1476 22.1844 56.9834 22.4697 58.0969 22.4697C59.2325 22.4697 60.0778 22.1844 60.6353 21.6136C61.1918 21.0232 61.4706 20.1278 61.4706 18.9273V11.4291C61.4706 10.9174 61.646 10.4943 61.9967 10.1598C62.3474 9.8055 62.791 9.62842 63.3275 9.62842Z" fill="#81818B"/>
<path d="M64.3033 10.5118L64.3032 10.5119L64.313 10.5213C64.5585 10.7558 64.6839 11.0456 64.6839 11.4291V18.9273C64.6839 20.9108 64.1089 22.4263 63.0045 23.5337C61.9085 24.632 60.2999 25.2168 58.0969 25.2168C55.896 25.2168 54.2874 24.6325 53.192 23.5352C52.1075 22.4284 51.5415 20.9122 51.5415 18.9273V11.4291C51.5415 11.0456 51.6669 10.756 51.9126 10.5216L51.9178 10.5166L51.9229 10.5115C52.172 10.2599 52.484 10.1284 52.8984 10.1284C53.3126 10.1284 53.6242 10.2598 53.8734 10.5115L53.8786 10.5168L53.8839 10.5218C54.13 10.7562 54.2553 11.0457 54.2553 11.4291V18.9273C54.2553 20.1953 54.5489 21.2374 55.2268 21.9566L55.2267 21.9566L55.2328 21.9629C55.9162 22.6631 56.9033 22.9697 58.0969 22.9697C59.3096 22.9697 60.3076 22.6647 60.993 21.963L60.9931 21.9631L60.9992 21.9566C61.677 21.2374 61.9706 20.1953 61.9706 18.9273V11.4291C61.9706 11.0456 62.096 10.756 62.3418 10.5216L62.347 10.5166L62.352 10.5115C62.6011 10.2599 62.9131 10.1284 63.3275 10.1284C63.7412 10.1284 64.0535 10.2598 64.3033 10.5118Z" stroke="black"/>
<path d="M64.3033 10.5118L64.3032 10.5119L64.313 10.5213C64.5585 10.7558 64.6839 11.0456 64.6839 11.4291V18.9273C64.6839 20.9108 64.1089 22.4263 63.0045 23.5337C61.9085 24.632 60.2999 25.2168 58.0969 25.2168C55.896 25.2168 54.2874 24.6325 53.192 23.5352C52.1075 22.4284 51.5415 20.9122 51.5415 18.9273V11.4291C51.5415 11.0456 51.6669 10.756 51.9126 10.5216L51.9178 10.5166L51.9229 10.5115C52.172 10.2599 52.484 10.1284 52.8984 10.1284C53.3126 10.1284 53.6242 10.2598 53.8734 10.5115L53.8786 10.5168L53.8839 10.5218C54.13 10.7562 54.2553 11.0457 54.2553 11.4291V18.9273C54.2553 20.1953 54.5489 21.2374 55.2268 21.9566L55.2267 21.9566L55.2328 21.9629C55.9162 22.6631 56.9033 22.9697 58.0969 22.9697C59.3096 22.9697 60.3076 22.6647 60.993 21.963L60.9931 21.9631L60.9992 21.9566C61.677 21.2374 61.9706 20.1953 61.9706 18.9273V11.4291C61.9706 11.0456 62.096 10.756 62.3418 10.5216L62.347 10.5166L62.352 10.5115C62.6011 10.2599 62.9131 10.1284 63.3275 10.1284C63.7412 10.1284 64.0535 10.2598 64.3033 10.5118Z" stroke="black" stroke-opacity="0.2"/>
</g>
<g filter="url(#filter6_d_34_4)">
<path d="M76.3533 9.33325C78.0039 9.33325 79.2208 9.71698 80.0052 10.4845C80.789 11.2324 81.3051 12.2065 81.5524 13.407L81.0263 13.1413L81.2741 12.669C81.5214 12.2163 81.9031 11.7342 82.4191 11.2225C82.9347 10.6912 83.5537 10.2484 84.2756 9.89411C85.0184 9.52015 85.8437 9.33325 86.7514 9.33325C88.2372 9.33325 89.3612 9.63828 90.1246 10.2483C90.9089 10.8584 91.4449 11.6752 91.7337 12.6986C92.023 13.7022 92.1674 14.824 92.1674 16.0639V23.6211C92.1674 24.1328 91.992 24.5656 91.6408 24.92C91.2901 25.2547 90.847 25.422 90.3104 25.422C89.7744 25.422 89.3302 25.2547 88.9795 24.92C88.6288 24.5656 88.4535 24.1328 88.4535 23.6211V16.0639C88.4535 15.4144 88.3711 14.8339 88.2062 14.3221C88.0409 13.7908 87.7416 13.3677 87.3085 13.0528C86.8753 12.7379 86.2564 12.5804 85.4521 12.5804C84.6677 12.5804 83.9973 12.7379 83.4403 13.0528C82.8827 13.3677 82.4601 13.7908 82.1713 14.3221C81.9031 14.8339 81.7687 15.4144 81.7687 16.0639V23.6211C81.7687 24.1328 81.5933 24.5656 81.2432 24.92C80.8925 25.2547 80.4483 25.422 79.9123 25.422C79.3757 25.422 78.9321 25.2547 78.5819 24.92C78.2307 24.5656 78.0553 24.1328 78.0553 23.6211V16.0639C78.0553 15.4144 77.9729 14.8339 77.8075 14.3221C77.6427 13.7908 77.3434 13.3677 76.9103 13.0528C76.4772 12.7379 75.8577 12.5804 75.0534 12.5804C74.2696 12.5804 73.5991 12.7379 73.0416 13.0528C72.4851 13.3677 72.0619 13.7908 71.7732 14.3221C71.5049 14.8339 71.371 15.4144 71.371 16.0639V23.6211C71.371 24.1328 71.1957 24.5656 70.845 24.92C70.4938 25.2547 70.0507 25.422 69.5141 25.422C68.9776 25.422 68.5345 25.2547 68.1832 24.92C67.8325 24.5656 67.6572 24.1328 67.6572 23.6211V11.4292C67.6572 10.9175 67.8325 10.4943 68.1832 10.1598C68.5345 9.80554 68.9776 9.62846 69.5141 9.62846C70.0507 9.62846 70.4938 9.80554 70.845 10.1598C71.1957 10.4943 71.371 10.9175 71.371 11.4292V12.6986L70.9064 12.61C71.0923 12.2754 71.3506 11.9211 71.6803 11.5472C72.0105 11.1536 72.4126 10.7895 72.8872 10.455C73.3618 10.1204 73.8879 9.85473 74.4654 9.65791C75.0434 9.44145 75.6729 9.33325 76.3533 9.33325Z" fill="#81818B"/>
<path d="M79.6555 10.8419L79.6555 10.8419L79.66 10.8463C80.1432 11.3072 80.5176 11.8679 80.7789 12.5368L80.5836 12.909L80.3476 13.3587L80.8009 13.5876L81.3269 13.8533L81.7429 14.0635C81.7393 14.0701 81.7356 14.0767 81.732 14.0834L81.732 14.0834L81.7285 14.09C81.4183 14.6817 81.2687 15.3435 81.2687 16.0639V23.6211C81.2687 24.0023 81.1443 24.3062 80.8927 24.5633C80.6461 24.7961 80.3318 24.922 79.9123 24.922C79.492 24.922 79.1782 24.796 78.9323 24.5631C78.6798 24.3062 78.5553 24.0024 78.5553 23.6211V16.0639C78.5553 15.3739 78.468 14.7411 78.2842 14.1712C78.0885 13.5423 77.7273 13.0286 77.2043 12.6484C76.6525 12.2471 75.913 12.0804 75.0534 12.0804C74.2025 12.0804 73.4434 12.2516 72.7957 12.6174L72.7954 12.6176C72.1625 12.9757 71.67 13.4648 71.3339 14.0834L71.3338 14.0834L71.3304 14.09C71.02 14.682 70.871 15.3438 70.871 16.0639V23.6211C70.871 24.0023 70.7467 24.306 70.4948 24.563C70.2474 24.7963 69.9339 24.922 69.5141 24.922C69.0944 24.922 68.7808 24.7963 68.5335 24.563C68.2815 24.306 68.1572 24.0023 68.1572 23.6211V11.4292C68.1572 11.0456 68.2826 10.756 68.5284 10.5216L68.5285 10.5217L68.5383 10.5118C68.7882 10.2598 69.1 10.1285 69.5141 10.1285C69.9283 10.1285 70.24 10.2598 70.4899 10.5118L70.4898 10.512L70.4999 10.5216C70.7457 10.756 70.871 11.0456 70.871 11.4292V11.7503C70.7164 11.9587 70.582 12.1644 70.4693 12.3672L70.1336 12.9717L70.8128 13.1011L71.2774 13.1897L71.871 13.3029V12.6986V12.0943C71.9292 12.0235 71.9906 11.9513 72.0553 11.8779L72.0554 11.878L72.0633 11.8686C72.3625 11.512 72.7316 11.1765 73.1753 10.8636C73.609 10.5579 74.092 10.3134 74.6267 10.1312L74.6338 10.1288L74.6407 10.1262C75.1572 9.93276 75.7266 9.83325 76.3533 9.83325C77.938 9.83325 79.0024 10.2028 79.6555 10.8419ZM81.8733 12.6426C82.0879 12.3163 82.3844 11.9611 82.7712 11.5776L82.7713 11.5776L82.778 11.5707C83.2501 11.0841 83.8211 10.6741 84.4958 10.343L84.4958 10.343L84.5004 10.3407C85.1673 10.005 85.9145 9.83325 86.7514 9.83325C88.1799 9.83325 89.1734 10.1282 89.8124 10.6389L89.8124 10.639L89.8176 10.643C90.5116 11.1828 90.9905 11.9058 91.2525 12.8343L91.2533 12.837C91.5274 13.7882 91.6674 14.8623 91.6674 16.0639V23.6211C91.6674 24.0024 91.543 24.3061 91.2906 24.563C91.0438 24.7962 90.7304 24.922 90.3104 24.922C89.8908 24.922 89.5765 24.7961 89.3299 24.5632C89.0779 24.3061 88.9535 24.0024 88.9535 23.6211V16.0639C88.9535 15.3737 88.8661 14.7409 88.6829 14.1712C88.4867 13.5424 88.1256 13.0287 87.6025 12.6484C87.0507 12.2472 86.3118 12.0804 85.4521 12.0804C84.6009 12.0804 83.8416 12.2516 83.1944 12.6174C82.7576 12.8641 82.3883 13.1729 82.0909 13.5433L82.0421 13.3062C81.9951 13.0781 81.9389 12.8569 81.8733 12.6426Z" stroke="black"/>
<path d="M79.6555 10.8419L79.6555 10.8419L79.66 10.8463C80.1432 11.3072 80.5176 11.8679 80.7789 12.5368L80.5836 12.909L80.3476 13.3587L80.8009 13.5876L81.3269 13.8533L81.7429 14.0635C81.7393 14.0701 81.7356 14.0767 81.732 14.0834L81.732 14.0834L81.7285 14.09C81.4183 14.6817 81.2687 15.3435 81.2687 16.0639V23.6211C81.2687 24.0023 81.1443 24.3062 80.8927 24.5633C80.6461 24.7961 80.3318 24.922 79.9123 24.922C79.492 24.922 79.1782 24.796 78.9323 24.5631C78.6798 24.3062 78.5553 24.0024 78.5553 23.6211V16.0639C78.5553 15.3739 78.468 14.7411 78.2842 14.1712C78.0885 13.5423 77.7273 13.0286 77.2043 12.6484C76.6525 12.2471 75.913 12.0804 75.0534 12.0804C74.2025 12.0804 73.4434 12.2516 72.7957 12.6174L72.7954 12.6176C72.1625 12.9757 71.67 13.4648 71.3339 14.0834L71.3338 14.0834L71.3304 14.09C71.02 14.682 70.871 15.3438 70.871 16.0639V23.6211C70.871 24.0023 70.7467 24.306 70.4948 24.563C70.2474 24.7963 69.9339 24.922 69.5141 24.922C69.0944 24.922 68.7808 24.7963 68.5335 24.563C68.2815 24.306 68.1572 24.0023 68.1572 23.6211V11.4292C68.1572 11.0456 68.2826 10.756 68.5284 10.5216L68.5285 10.5217L68.5383 10.5118C68.7882 10.2598 69.1 10.1285 69.5141 10.1285C69.9283 10.1285 70.24 10.2598 70.4899 10.5118L70.4898 10.512L70.4999 10.5216C70.7457 10.756 70.871 11.0456 70.871 11.4292V11.7503C70.7164 11.9587 70.582 12.1644 70.4693 12.3672L70.1336 12.9717L70.8128 13.1011L71.2774 13.1897L71.871 13.3029V12.6986V12.0943C71.9292 12.0235 71.9906 11.9513 72.0553 11.8779L72.0554 11.878L72.0633 11.8686C72.3625 11.512 72.7316 11.1765 73.1753 10.8636C73.609 10.5579 74.092 10.3134 74.6267 10.1312L74.6338 10.1288L74.6407 10.1262C75.1572 9.93276 75.7266 9.83325 76.3533 9.83325C77.938 9.83325 79.0024 10.2028 79.6555 10.8419ZM81.8733 12.6426C82.0879 12.3163 82.3844 11.9611 82.7712 11.5776L82.7713 11.5776L82.778 11.5707C83.2501 11.0841 83.8211 10.6741 84.4958 10.343L84.4958 10.343L84.5004 10.3407C85.1673 10.005 85.9145 9.83325 86.7514 9.83325C88.1799 9.83325 89.1734 10.1282 89.8124 10.6389L89.8124 10.639L89.8176 10.643C90.5116 11.1828 90.9905 11.9058 91.2525 12.8343L91.2533 12.837C91.5274 13.7882 91.6674 14.8623 91.6674 16.0639V23.6211C91.6674 24.0024 91.543 24.3061 91.2906 24.563C91.0438 24.7962 90.7304 24.922 90.3104 24.922C89.8908 24.922 89.5765 24.7961 89.3299 24.5632C89.0779 24.3061 88.9535 24.0024 88.9535 23.6211V16.0639C88.9535 15.3737 88.8661 14.7409 88.6829 14.1712C88.4867 13.5424 88.1256 13.0287 87.6025 12.6484C87.0507 12.2472 86.3118 12.0804 85.4521 12.0804C84.6009 12.0804 83.8416 12.2516 83.1944 12.6174C82.7576 12.8641 82.3883 13.1729 82.0909 13.5433L82.0421 13.3062C81.9951 13.0781 81.9389 12.8569 81.8733 12.6426Z" stroke="black" stroke-opacity="0.2"/>
</g>
<g filter="url(#filter7_d_34_4)">
<path d="M98.1361 23.6211C98.1361 24.1328 97.9607 24.5656 97.6095 24.92C97.2593 25.2547 96.8157 25.422 96.2791 25.422C95.7431 25.422 95.299 25.2547 94.9483 24.92C94.5981 24.5656 94.4227 24.1328 94.4227 23.6211V11.4292C94.4227 10.9175 94.5981 10.4943 94.9483 10.1598C95.299 9.80555 95.7431 9.62846 96.2791 9.62846C96.8157 9.62846 97.2593 9.80555 97.6095 10.1598C97.9607 10.4943 98.1361 10.9175 98.1361 11.4292V23.6211ZM96.2482 7.70959C95.5468 7.70959 95.0517 7.60139 94.7624 7.38488C94.4742 7.16842 94.3298 6.78464 94.3298 6.2336V5.67269C94.3298 5.10202 94.4847 4.71819 94.7934 4.52142C95.1236 4.30491 95.6192 4.19666 96.2791 4.19666C97.0015 4.19666 97.5071 4.30491 97.7953 4.52142C98.0846 4.73788 98.229 5.12165 98.229 5.67269V6.2336C98.229 6.80433 98.0741 7.19792 97.7644 7.41438C97.4557 7.6112 96.9496 7.70959 96.2482 7.70959Z" fill="#81818B"/>
<path d="M95.2936 10.5214L95.2938 10.5215L95.3036 10.5116C95.5527 10.26 95.8652 10.1285 96.2791 10.1285C96.6936 10.1285 97.0054 10.26 97.2539 10.5113L97.2592 10.5167L97.2646 10.5219C97.5107 10.7562 97.6361 11.0457 97.6361 11.4292V23.6211C97.6361 24.0025 97.5116 24.3062 97.2592 24.5631C97.0132 24.796 96.6994 24.922 96.2791 24.922C95.8596 24.922 95.5453 24.7961 95.2987 24.5633C95.0471 24.3062 94.9227 24.0023 94.9227 23.6211V11.4292C94.9227 11.0456 95.0482 10.7559 95.2936 10.5214ZM95.0621 4.94305L95.0622 4.94308L95.0675 4.93956C95.2782 4.80145 95.6579 4.69666 96.2791 4.69666C96.9842 4.69666 97.3453 4.80875 97.495 4.92119L97.4958 4.92175C97.6033 5.00223 97.729 5.19371 97.729 5.67269V6.2336C97.729 6.71695 97.6015 6.91335 97.486 6.99872C97.2992 7.11299 96.9163 7.20959 96.2482 7.20959C95.569 7.20959 95.2153 7.09906 95.0624 6.98484C94.9553 6.90423 94.8298 6.71216 94.8298 6.2336V5.67269C94.8298 5.17306 94.9652 5.00486 95.0621 4.94305Z" stroke="black"/>
<path d="M95.2936 10.5214L95.2938 10.5215L95.3036 10.5116C95.5527 10.26 95.8652 10.1285 96.2791 10.1285C96.6936 10.1285 97.0054 10.26 97.2539 10.5113L97.2592 10.5167L97.2646 10.5219C97.5107 10.7562 97.6361 11.0457 97.6361 11.4292V23.6211C97.6361 24.0025 97.5116 24.3062 97.2592 24.5631C97.0132 24.796 96.6994 24.922 96.2791 24.922C95.8596 24.922 95.5453 24.7961 95.2987 24.5633C95.0471 24.3062 94.9227 24.0023 94.9227 23.6211V11.4292C94.9227 11.0456 95.0482 10.7559 95.2936 10.5214ZM95.0621 4.94305L95.0622 4.94308L95.0675 4.93956C95.2782 4.80145 95.6579 4.69666 96.2791 4.69666C96.9842 4.69666 97.3453 4.80875 97.495 4.92119L97.4958 4.92175C97.6033 5.00223 97.729 5.19371 97.729 5.67269V6.2336C97.729 6.71695 97.6015 6.91335 97.486 6.99872C97.2992 7.11299 96.9163 7.20959 96.2482 7.20959C95.569 7.20959 95.2153 7.09906 95.0624 6.98484C94.9553 6.90423 94.8298 6.71216 94.8298 6.2336V5.67269C94.8298 5.17306 94.9652 5.00486 95.0621 4.94305Z" stroke="black" stroke-opacity="0.2"/>
</g>
<g filter="url(#filter8_d_34_4)">
<path d="M109.256 9.33325C110.783 9.33325 111.938 9.63828 112.722 10.2483C113.527 10.8584 114.073 11.6752 114.362 12.6986C114.672 13.7022 114.826 14.824 114.826 16.0639V23.6211C114.826 24.1328 114.651 24.5656 114.3 24.92C113.95 25.2547 113.506 25.422 112.969 25.422C112.433 25.422 111.99 25.2547 111.639 24.92C111.288 24.5656 111.112 24.1328 111.112 23.6211V16.0639C111.112 15.4144 111.02 14.8339 110.835 14.3221C110.669 13.7908 110.36 13.3677 109.906 13.0528C109.452 12.7379 108.802 12.5804 107.956 12.5804C107.131 12.5804 106.429 12.7379 105.852 13.0528C105.295 13.3677 104.862 13.7908 104.552 14.3221C104.263 14.8339 104.118 15.4144 104.118 16.0639V23.6211C104.118 24.1328 103.944 24.5656 103.593 24.92C103.242 25.2547 102.798 25.422 102.262 25.422C101.725 25.422 101.282 25.2547 100.932 24.92C100.58 24.5656 100.405 24.1328 100.405 23.6211V11.4292C100.405 10.9175 100.58 10.4943 100.932 10.1598C101.282 9.80554 101.725 9.62846 102.262 9.62846C102.798 9.62846 103.242 9.80554 103.593 10.1598C103.944 10.4943 104.118 10.9175 104.118 11.4292V12.6986L103.655 12.61C103.841 12.2754 104.108 11.9211 104.459 11.5472C104.81 11.1536 105.223 10.7895 105.697 10.455C106.172 10.1204 106.708 9.85473 107.306 9.65791C107.905 9.44145 108.555 9.33325 109.256 9.33325Z" fill="#81818B"/>
<path d="M112.415 10.6429L112.415 10.6429C111.755 10.1292 110.728 9.83325 109.256 9.83325C108.607 9.83325 108.015 9.93328 107.476 10.1281L107.469 10.1306L107.463 10.1328C106.908 10.3155 106.416 10.5598 105.985 10.8635L112.415 10.6429ZM112.415 10.6429L112.42 10.6468M112.415 10.6429L112.42 10.6468M112.42 10.6468C113.133 11.1875 113.62 11.9097 113.881 12.8343L113.881 12.8344M112.42 10.6468L113.881 12.8344M113.881 12.8344L113.884 12.846M113.881 12.8344L113.884 12.846M113.884 12.846C114.177 13.7941 114.326 14.8651 114.326 16.0639V23.6211C114.326 24.0024 114.202 24.3061 113.95 24.5631C113.703 24.7961 113.389 24.922 112.969 24.922C112.55 24.922 112.236 24.7961 111.989 24.563C111.737 24.3061 111.612 24.0024 111.612 23.6211V16.0639C111.612 15.3717 111.515 14.7356 111.309 14.1625C111.11 13.5306 110.734 13.0187 110.191 12.642C109.62 12.2455 108.853 12.0804 107.956 12.0804C107.068 12.0804 106.28 12.2499 105.613 12.6138L105.613 12.6137L105.606 12.6175C104.975 12.9742 104.476 13.4593 104.12 14.0703L104.12 14.0703L104.117 14.0764C103.781 14.6706 103.618 15.3372 103.618 16.0639V23.6211C103.618 24.0027 103.494 24.3064 103.243 24.5631C102.996 24.7961 102.682 24.922 102.262 24.922C101.842 24.922 101.528 24.796 101.282 24.5632C101.03 24.3062 100.905 24.0024 100.905 23.6211V11.4292C100.905 11.0457 101.03 10.7562 101.277 10.5219L101.282 10.5167L101.287 10.5113C101.536 10.26 101.848 10.1285 102.262 10.1285C102.676 10.1285 102.989 10.26 103.238 10.5116L103.243 10.5167L103.248 10.5216C103.493 10.7558 103.618 11.0453 103.618 11.4292V11.7628M113.884 12.846L103.618 11.7628M103.618 11.7628C103.463 11.9663 103.329 12.1677 103.218 12.3672L102.882 12.9714L103.561 13.1011L104.025 13.1897L104.618 13.3031V12.6986V12.1176C104.683 12.0431 104.751 11.9669 104.824 11.8893L104.824 11.8894L104.832 11.8799C105.155 11.5177 105.539 11.1786 105.985 10.8636L103.618 11.7628Z" stroke="black"/>
<path d="M112.415 10.6429L112.415 10.6429C111.755 10.1292 110.728 9.83325 109.256 9.83325C108.607 9.83325 108.015 9.93328 107.476 10.1281L107.469 10.1306L107.463 10.1328C106.908 10.3155 106.416 10.5598 105.985 10.8635L112.415 10.6429ZM112.415 10.6429L112.42 10.6468M112.415 10.6429L112.42 10.6468M112.42 10.6468C113.133 11.1875 113.62 11.9097 113.881 12.8343L113.881 12.8344M112.42 10.6468L113.881 12.8344M113.881 12.8344L113.884 12.846M113.881 12.8344L113.884 12.846M113.884 12.846C114.177 13.7941 114.326 14.8651 114.326 16.0639V23.6211C114.326 24.0024 114.202 24.3061 113.95 24.5631C113.703 24.7961 113.389 24.922 112.969 24.922C112.55 24.922 112.236 24.7961 111.989 24.563C111.737 24.3061 111.612 24.0024 111.612 23.6211V16.0639C111.612 15.3717 111.515 14.7356 111.309 14.1625C111.11 13.5306 110.734 13.0187 110.191 12.642C109.62 12.2455 108.853 12.0804 107.956 12.0804C107.068 12.0804 106.28 12.2499 105.613 12.6138L105.613 12.6137L105.606 12.6175C104.975 12.9742 104.476 13.4593 104.12 14.0703L104.12 14.0703L104.117 14.0764C103.781 14.6706 103.618 15.3372 103.618 16.0639V23.6211C103.618 24.0027 103.494 24.3064 103.243 24.5631C102.996 24.7961 102.682 24.922 102.262 24.922C101.842 24.922 101.528 24.796 101.282 24.5632C101.03 24.3062 100.905 24.0024 100.905 23.6211V11.4292C100.905 11.0457 101.03 10.7562 101.277 10.5219L101.282 10.5167L101.287 10.5113C101.536 10.26 101.848 10.1285 102.262 10.1285C102.676 10.1285 102.989 10.26 103.238 10.5116L103.243 10.5167L103.248 10.5216C103.493 10.7558 103.618 11.0453 103.618 11.4292V11.7628M113.884 12.846L103.618 11.7628M103.618 11.7628C103.463 11.9663 103.329 12.1677 103.218 12.3672L102.882 12.9714L103.561 13.1011L104.025 13.1897L104.618 13.3031V12.6986V12.1176C104.683 12.0431 104.751 11.9669 104.824 11.8893L104.824 11.8894L104.832 11.8799C105.155 11.5177 105.539 11.1786 105.985 10.8636L103.618 11.7628Z" stroke="black" stroke-opacity="0.2"/>
</g>
<g filter="url(#filter9_d_34_4)">
<path d="M133.2 17.5398C133.2 19.1536 132.818 20.5805 132.055 21.8203C131.312 23.0405 130.301 23.995 129.022 24.6837C127.763 25.3728 126.35 25.7168 124.782 25.7168C123.214 25.7168 121.79 25.3728 120.512 24.6837C119.253 23.995 118.242 23.0405 117.479 21.8203C116.736 20.5805 116.365 19.1536 116.365 17.5398C116.365 15.9261 116.736 14.5091 117.479 13.2889C118.242 12.0491 119.253 11.0848 120.512 10.396C121.79 9.68747 123.214 9.33325 124.782 9.33325C126.35 9.33325 127.763 9.68747 129.022 10.396C130.301 11.0848 131.312 12.0491 132.055 13.2889C132.818 14.5091 133.2 15.9261 133.2 17.5398ZM129.486 17.5398C129.486 16.5362 129.27 15.6703 128.836 14.9421C128.423 14.1942 127.856 13.6137 127.134 13.2004C126.433 12.7871 125.649 12.5804 124.782 12.5804C123.916 12.5804 123.121 12.7871 122.399 13.2004C121.698 13.6137 121.13 14.1942 120.697 14.9421C120.285 15.6703 120.078 16.5362 120.078 17.5398C120.078 18.5239 120.285 19.3898 120.697 20.1377C121.13 20.8658 121.698 21.4365 122.399 21.8498C123.121 22.2632 123.916 22.4697 124.782 22.4697C125.649 22.4697 126.433 22.2632 127.134 21.8498C127.856 21.4365 128.423 20.8658 128.836 20.1377C129.27 19.3898 129.486 18.5239 129.486 17.5398Z" fill="#81818B"/>
<path d="M128.785 24.2435L128.785 24.2435L128.782 24.2452C127.604 24.8902 126.274 25.2168 124.782 25.2168C123.291 25.2168 121.95 24.8905 120.75 24.2443C119.569 23.5977 118.623 22.7047 117.905 21.5592C117.216 20.4067 116.865 19.072 116.865 17.5398C116.865 16.0062 117.217 14.6819 117.905 13.55C118.624 12.3834 119.571 11.4808 120.752 10.8346L120.752 10.8346L120.754 10.8333C121.953 10.1689 123.293 9.83325 124.782 9.83325C126.272 9.83325 127.599 10.1689 128.776 10.8317L128.776 10.8317L128.785 10.8362C129.985 11.4825 130.929 12.3837 131.626 13.5459L131.626 13.546L131.631 13.5541C132.339 14.6854 132.7 16.0082 132.7 17.5398C132.7 19.0714 132.339 20.4055 131.629 21.5582L131.628 21.5603C130.932 22.7033 129.987 23.5961 128.785 24.2435ZM122.151 12.7665L122.151 12.7664L122.146 12.7695C121.365 13.2292 120.738 13.8739 120.265 14.6917L120.265 14.6917L120.262 14.6956C119.799 15.5124 119.578 16.4668 119.578 17.5398C119.578 18.5956 119.8 19.5469 120.26 20.3792L120.263 20.3862L120.268 20.3931C120.741 21.1907 121.368 21.823 122.146 22.2807L122.146 22.2807L122.151 22.2837C122.952 22.7422 123.832 22.9697 124.782 22.9697C125.731 22.9697 126.603 22.7428 127.385 22.2822C128.184 21.8245 128.814 21.19 129.27 20.3864C129.753 19.5527 129.986 18.5987 129.986 17.5398C129.986 16.466 129.754 15.5106 129.27 14.6934C128.815 13.8719 128.186 13.2268 127.385 12.768C126.603 12.3075 125.731 12.0804 124.782 12.0804C123.832 12.0804 122.952 12.3081 122.151 12.7665Z" stroke="black"/>
<path d="M128.785 24.2435L128.785 24.2435L128.782 24.2452C127.604 24.8902 126.274 25.2168 124.782 25.2168C123.291 25.2168 121.95 24.8905 120.75 24.2443C119.569 23.5977 118.623 22.7047 117.905 21.5592C117.216 20.4067 116.865 19.072 116.865 17.5398C116.865 16.0062 117.217 14.6819 117.905 13.55C118.624 12.3834 119.571 11.4808 120.752 10.8346L120.752 10.8346L120.754 10.8333C121.953 10.1689 123.293 9.83325 124.782 9.83325C126.272 9.83325 127.599 10.1689 128.776 10.8317L128.776 10.8317L128.785 10.8362C129.985 11.4825 130.929 12.3837 131.626 13.5459L131.626 13.546L131.631 13.5541C132.339 14.6854 132.7 16.0082 132.7 17.5398C132.7 19.0714 132.339 20.4055 131.629 21.5582L131.628 21.5603C130.932 22.7033 129.987 23.5961 128.785 24.2435ZM122.151 12.7665L122.151 12.7664L122.146 12.7695C121.365 13.2292 120.738 13.8739 120.265 14.6917L120.265 14.6917L120.262 14.6956C119.799 15.5124 119.578 16.4668 119.578 17.5398C119.578 18.5956 119.8 19.5469 120.26 20.3792L120.263 20.3862L120.268 20.3931C120.741 21.1907 121.368 21.823 122.146 22.2807L122.146 22.2807L122.151 22.2837C122.952 22.7422 123.832 22.9697 124.782 22.9697C125.731 22.9697 126.603 22.7428 127.385 22.2822C128.184 21.8245 128.814 21.19 129.27 20.3864C129.753 19.5527 129.986 18.5987 129.986 17.5398C129.986 16.466 129.754 15.5106 129.27 14.6934C128.815 13.8719 128.186 13.2268 127.385 12.768C126.603 12.3075 125.731 12.0804 124.782 12.0804C123.832 12.0804 122.952 12.3081 122.151 12.7665Z" stroke="black" stroke-opacity="0.2"/>
</g>
<g filter="url(#filter10_d_34_4)">
<path d="M147.041 9.62842C147.577 9.62842 148.021 9.8055 148.372 10.1598C148.722 10.4943 148.898 10.9174 148.898 11.4291V18.9273C148.898 21.0134 148.289 22.6665 147.072 23.8867C145.854 25.1069 144.101 25.7168 141.811 25.7168C139.521 25.7168 137.767 25.1069 136.55 23.8867C135.353 22.6665 134.755 21.0134 134.755 18.9273V11.4291C134.755 10.9174 134.93 10.4943 135.281 10.1598C135.632 9.8055 136.075 9.62842 136.612 9.62842C137.148 9.62842 137.592 9.8055 137.943 10.1598C138.293 10.4943 138.469 10.9174 138.469 11.4291V18.9273C138.469 20.1278 138.747 21.0232 139.304 21.6136C139.861 22.1844 140.697 22.4697 141.811 22.4697C142.945 22.4697 143.792 22.1844 144.348 21.6136C144.906 21.0232 145.184 20.1278 145.184 18.9273V11.4291C145.184 10.9174 145.36 10.4943 145.71 10.1598C146.061 9.8055 146.505 9.62842 147.041 9.62842Z" fill="#81818B"/>
<path d="M148.016 10.5115L148.021 10.5166L148.027 10.5216C148.272 10.756 148.398 11.0456 148.398 11.4291V18.9273C148.398 20.9108 147.823 22.4263 146.718 23.5336C145.622 24.632 144.014 25.2168 141.811 25.2168C139.609 25.2168 138.001 24.6326 136.905 23.5351C135.821 22.4283 135.255 20.9122 135.255 18.9273V11.4291C135.255 11.0457 135.38 10.7562 135.626 10.5218L135.632 10.5168L135.637 10.5115C135.886 10.2598 136.198 10.1284 136.612 10.1284C137.026 10.1284 137.338 10.2599 137.587 10.5115L137.592 10.5166L137.598 10.5216C137.843 10.756 137.969 11.0456 137.969 11.4291V18.9273C137.969 20.195 138.262 21.2375 138.941 21.9569L138.941 21.957L138.947 21.9629C139.63 22.6631 140.617 22.9697 141.811 22.9697C143.022 22.9697 144.022 22.6648 144.706 21.9627L144.706 21.9627L144.712 21.9569C145.391 21.2376 145.684 20.1953 145.684 18.9273V11.4291C145.684 11.0456 145.81 10.7558 146.055 10.5213L146.056 10.5214L146.065 10.5115C146.314 10.2599 146.627 10.1284 147.041 10.1284C147.455 10.1284 147.767 10.2599 148.016 10.5115Z" stroke="black"/>
<path d="M148.016 10.5115L148.021 10.5166L148.027 10.5216C148.272 10.756 148.398 11.0456 148.398 11.4291V18.9273C148.398 20.9108 147.823 22.4263 146.718 23.5336C145.622 24.632 144.014 25.2168 141.811 25.2168C139.609 25.2168 138.001 24.6326 136.905 23.5351C135.821 22.4283 135.255 20.9122 135.255 18.9273V11.4291C135.255 11.0457 135.38 10.7562 135.626 10.5218L135.632 10.5168L135.637 10.5115C135.886 10.2598 136.198 10.1284 136.612 10.1284C137.026 10.1284 137.338 10.2599 137.587 10.5115L137.592 10.5166L137.598 10.5216C137.843 10.756 137.969 11.0456 137.969 11.4291V18.9273C137.969 20.195 138.262 21.2375 138.941 21.9569L138.941 21.957L138.947 21.9629C139.63 22.6631 140.617 22.9697 141.811 22.9697C143.022 22.9697 144.022 22.6648 144.706 21.9627L144.706 21.9627L144.712 21.9569C145.391 21.2376 145.684 20.1953 145.684 18.9273V11.4291C145.684 11.0456 145.81 10.7558 146.055 10.5213L146.056 10.5214L146.065 10.5115C146.314 10.2599 146.627 10.1284 147.041 10.1284C147.455 10.1284 147.767 10.2599 148.016 10.5115Z" stroke="black" stroke-opacity="0.2"/>
</g>
<g filter="url(#filter11_d_34_4)">
<path d="M150.411 22.9716C150.205 22.6961 150.112 22.3419 150.133 21.9089C150.154 21.4759 150.422 21.102 150.938 20.7871C151.268 20.5903 151.618 20.5116 151.99 20.551C152.361 20.5707 152.722 20.7477 153.073 21.0823C153.672 21.653 154.301 22.0958 154.961 22.4107C155.621 22.7256 156.446 22.883 157.436 22.883C157.746 22.8633 158.086 22.824 158.458 22.765C158.829 22.6863 159.149 22.5288 159.417 22.2927C159.705 22.0368 159.85 21.653 159.85 21.1413C159.85 20.7084 159.695 20.364 159.386 20.1081C159.076 19.8523 158.664 19.6359 158.148 19.4587C157.653 19.2816 157.096 19.1143 156.477 18.9569C155.837 18.7797 155.177 18.583 154.496 18.3665C153.836 18.15 153.227 17.8745 152.67 17.5398C152.114 17.1856 151.66 16.7232 151.309 16.1524C150.958 15.5817 150.783 14.8633 150.783 13.9975C150.783 13.0134 151.071 12.177 151.649 11.4882C152.227 10.7994 152.97 10.2681 153.877 9.89411C154.806 9.52015 155.775 9.33325 156.786 9.33325C157.426 9.33325 158.096 9.41195 158.798 9.5694C159.499 9.70716 160.17 9.9433 160.81 10.2779C161.449 10.5927 161.986 11.0159 162.419 11.5472C162.645 11.8424 162.78 12.1967 162.821 12.61C162.862 13.0233 162.666 13.3972 162.233 13.7318C161.924 13.9679 161.563 14.0762 161.15 14.0565C160.738 14.0171 160.397 13.8794 160.129 13.6432C159.778 13.2102 159.304 12.8658 158.705 12.61C158.127 12.3542 157.457 12.2262 156.694 12.2262C156.384 12.2262 156.044 12.2656 155.672 12.3443C155.322 12.4033 155.012 12.551 154.744 12.7871C154.476 13.0036 154.342 13.3578 154.342 13.8498C154.342 14.3025 154.496 14.6666 154.806 14.9421C155.115 15.1979 155.528 15.4144 156.044 15.5916C156.58 15.749 157.148 15.9065 157.746 16.0639C158.365 16.2213 158.994 16.4083 159.634 16.6247C160.274 16.8413 160.861 17.1266 161.398 17.4808C161.934 17.8351 162.367 18.2976 162.697 18.8683C163.028 19.4193 163.192 20.1278 163.192 20.9938C163.192 21.9975 162.883 22.8536 162.264 23.562C161.645 24.2706 160.871 24.8117 159.943 25.1857C159.015 25.5401 158.065 25.7168 157.096 25.7168C155.879 25.7168 154.662 25.5204 153.444 25.1267C152.227 24.7132 151.216 23.995 150.411 22.9716Z" fill="#81818B"/>
<path d="M150.633 21.9331L150.633 21.9325C150.642 21.7259 150.763 21.4803 151.196 21.2152C151.435 21.0732 151.677 21.0206 151.937 21.0482L151.95 21.0496L151.964 21.0503C152.183 21.0619 152.436 21.1664 152.728 21.4442C153.36 22.0466 154.032 22.5216 154.746 22.8621C155.492 23.2182 156.397 23.383 157.436 23.383H157.452L157.468 23.382C157.796 23.3612 158.152 23.3198 158.536 23.2588L158.549 23.2568L158.561 23.2541C159.011 23.1588 159.411 22.9645 159.747 22.6677L159.748 22.6669C160.176 22.288 160.35 21.7473 160.35 21.1413C160.35 20.5726 160.139 20.0818 159.704 19.7229C159.336 19.4181 158.866 19.1768 158.313 18.9869C157.803 18.8043 157.233 18.6334 156.606 18.4736C155.974 18.2988 155.322 18.1045 154.65 17.8907C154.026 17.6859 153.454 17.4269 152.934 17.1146C152.444 16.8022 152.046 16.3959 151.735 15.8907C151.445 15.4185 151.283 14.7974 151.283 13.9975C151.283 13.1188 151.537 12.3995 152.032 11.8096C152.554 11.1886 153.227 10.7032 154.066 10.3572C154.934 10.0079 155.839 9.83325 156.786 9.83325C157.385 9.83325 158.018 9.9069 158.689 10.0573L158.689 10.0574L158.702 10.06C159.355 10.1884 159.981 10.4084 160.578 10.7209L160.578 10.721L160.589 10.7265C161.164 11.0097 161.641 11.3866 162.026 11.8573C162.188 12.0694 162.291 12.331 162.324 12.6594C162.342 12.8476 162.273 13.0688 161.928 13.3352C161.722 13.4924 161.483 13.5695 161.185 13.5575C160.883 13.5269 160.658 13.4325 160.487 13.2916C160.081 12.8042 159.548 12.427 158.905 12.1515C158.252 11.8631 157.511 11.7262 156.694 11.7262C156.346 11.7262 155.973 11.7701 155.579 11.8531C155.143 11.9283 154.755 12.1141 154.421 12.4051C153.998 12.7519 153.842 13.2777 153.842 13.8498C153.842 14.4305 154.047 14.9359 154.474 15.3157L154.481 15.3216L154.487 15.3273C154.856 15.6327 155.328 15.8743 155.882 16.0645L155.892 16.0681L155.903 16.0713C156.444 16.2302 157.016 16.3889 157.619 16.5474L157.619 16.5474L157.623 16.5484C158.228 16.7025 158.845 16.8858 159.473 17.0983L159.473 17.0983C160.075 17.3018 160.623 17.5686 161.122 17.8981C161.592 18.2085 161.972 18.6132 162.265 19.1187L162.265 19.1187L162.269 19.1253C162.539 19.5761 162.692 20.1878 162.692 20.9938C162.692 21.8854 162.421 22.6221 161.887 23.2329L161.887 23.2332C161.325 23.8775 160.619 24.3737 159.761 24.7202C158.889 25.0523 158.002 25.2168 157.096 25.2168C155.935 25.2168 154.771 25.0298 153.602 24.6521C152.481 24.2706 151.552 23.6121 150.808 22.6678C150.69 22.5075 150.616 22.2775 150.633 21.9331Z" stroke="black"/>
<path d="M150.633 21.9331L150.633 21.9325C150.642 21.7259 150.763 21.4803 151.196 21.2152C151.435 21.0732 151.677 21.0206 151.937 21.0482L151.95 21.0496L151.964 21.0503C152.183 21.0619 152.436 21.1664 152.728 21.4442C153.36 22.0466 154.032 22.5216 154.746 22.8621C155.492 23.2182 156.397 23.383 157.436 23.383H157.452L157.468 23.382C157.796 23.3612 158.152 23.3198 158.536 23.2588L158.549 23.2568L158.561 23.2541C159.011 23.1588 159.411 22.9645 159.747 22.6677L159.748 22.6669C160.176 22.288 160.35 21.7473 160.35 21.1413C160.35 20.5726 160.139 20.0818 159.704 19.7229C159.336 19.4181 158.866 19.1768 158.313 18.9869C157.803 18.8043 157.233 18.6334 156.606 18.4736C155.974 18.2988 155.322 18.1045 154.65 17.8907C154.026 17.6859 153.454 17.4269 152.934 17.1146C152.444 16.8022 152.046 16.3959 151.735 15.8907C151.445 15.4185 151.283 14.7974 151.283 13.9975C151.283 13.1188 151.537 12.3995 152.032 11.8096C152.554 11.1886 153.227 10.7032 154.066 10.3572C154.934 10.0079 155.839 9.83325 156.786 9.83325C157.385 9.83325 158.018 9.9069 158.689 10.0573L158.689 10.0574L158.702 10.06C159.355 10.1884 159.981 10.4084 160.578 10.7209L160.578 10.721L160.589 10.7265C161.164 11.0097 161.641 11.3866 162.026 11.8573C162.188 12.0694 162.291 12.331 162.324 12.6594C162.342 12.8476 162.273 13.0688 161.928 13.3352C161.722 13.4924 161.483 13.5695 161.185 13.5575C160.883 13.5269 160.658 13.4325 160.487 13.2916C160.081 12.8042 159.548 12.427 158.905 12.1515C158.252 11.8631 157.511 11.7262 156.694 11.7262C156.346 11.7262 155.973 11.7701 155.579 11.8531C155.143 11.9283 154.755 12.1141 154.421 12.4051C153.998 12.7519 153.842 13.2777 153.842 13.8498C153.842 14.4305 154.047 14.9359 154.474 15.3157L154.481 15.3216L154.487 15.3273C154.856 15.6327 155.328 15.8743 155.882 16.0645L155.892 16.0681L155.903 16.0713C156.444 16.2302 157.016 16.3889 157.619 16.5474L157.619 16.5474L157.623 16.5484C158.228 16.7025 158.845 16.8858 159.473 17.0983L159.473 17.0983C160.075 17.3018 160.623 17.5686 161.122 17.8981C161.592 18.2085 161.972 18.6132 162.265 19.1187L162.265 19.1187L162.269 19.1253C162.539 19.5761 162.692 20.1878 162.692 20.9938C162.692 21.8854 162.421 22.6221 161.887 23.2329L161.887 23.2332C161.325 23.8775 160.619 24.3737 159.761 24.7202C158.889 25.0523 158.002 25.2168 157.096 25.2168C155.935 25.2168 154.771 25.0298 153.602 24.6521C152.481 24.2706 151.552 23.6121 150.808 22.6678C150.69 22.5075 150.616 22.2775 150.633 21.9331Z" stroke="black" stroke-opacity="0.2"/>
</g>
<defs>
<filter id="filter0_d_34_4" x="0.981552" y="0.0432129" width="22.985" height="22.1603" filterUnits="userSpaceOnUse" color-interpolation-filters="sRGB">
<feFlood flood-opacity="0" result="BackgroundImageFix"/>
<feColorMatrix in="SourceAlpha" type="matrix" values="0 0 0 0 0 0 0 0 0 0 0 0 0 0 0 0 0 0 127 0" result="hardAlpha"/>
<feOffset dy="4"/>
<feGaussianBlur stdDeviation="2"/>
<feComposite in2="hardAlpha" operator="out"/>
<feColorMatrix type="matrix" values="0 0 0 0 0 0 0 0 0 0 0 0 0 0 0 0 0 0 0.25 0"/>
<feBlend mode="normal" in2="BackgroundImageFix" result="effect1_dropShadow_34_4"/>
<feBlend mode="normal" in="SourceGraphic" in2="effect1_dropShadow_34_4" result="shape"/>
</filter>
<filter id="filter1_d_34_4" x="16.9061" y="0.0432129" width="23.0306" height="22.1547" filterUnits="userSpaceOnUse" color-interpolation-filters="sRGB">
<feFlood flood-opacity="0" result="BackgroundImageFix"/>
<feColorMatrix in="SourceAlpha" type="matrix" values="0 0 0 0 0 0 0 0 0 0 0 0 0 0 0 0 0 0 127 0" result="hardAlpha"/>
<feOffset dy="4"/>
<feGaussianBlur stdDeviation="2"/>
<feComposite in2="hardAlpha" operator="out"/>
<feColorMatrix type="matrix" values="0 0 0 0 0 0 0 0 0 0 0 0 0 0 0 0 0 0 0.25 0"/>
<feBlend mode="normal" in2="BackgroundImageFix" result="effect1_dropShadow_34_4"/>
<feBlend mode="normal" in="SourceGraphic" in2="effect1_dropShadow_34_4" result="shape"/>
</filter>
<filter id="filter2_d_34_4" x="0.978516" y="15.0291" width="22.973" height="22.2218" filterUnits="userSpaceOnUse" color-interpolation-filters="sRGB">
<feFlood flood-opacity="0" result="BackgroundImageFix"/>
<feColorMatrix in="SourceAlpha" type="matrix" values="0 0 0 0 0 0 0 0 0 0 0 0 0 0 0 0 0 0 127 0" result="hardAlpha"/>
<feOffset dy="4"/>
<feGaussianBlur stdDeviation="2"/>
<feComposite in2="hardAlpha" operator="out"/>
<feColorMatrix type="matrix" values="0 0 0 0 0 0 0 0 0 0 0 0 0 0 0 0 0 0 0.25 0"/>
<feBlend mode="normal" in2="BackgroundImageFix" result="effect1_dropShadow_34_4"/>
<feBlend mode="normal" in="SourceGraphic" in2="effect1_dropShadow_34_4" result="shape"/>
</filter>
<filter id="filter3_d_34_4" x="16.9126" y="15.0398" width="23.001" height="22.2074" filterUnits="userSpaceOnUse" color-interpolation-filters="sRGB">
<feFlood flood-opacity="0" result="BackgroundImageFix"/>
<feColorMatrix in="SourceAlpha" type="matrix" values="0 0 0 0 0 0 0 0 0 0 0 0 0 0 0 0 0 0 127 0" result="hardAlpha"/>
<feOffset dy="4"/>
<feGaussianBlur stdDeviation="2"/>
<feComposite in2="hardAlpha" operator="out"/>
<feColorMatrix type="matrix" values="0 0 0 0 0 0 0 0 0 0 0 0 0 0 0 0 0 0 0.25 0"/>
<feBlend mode="normal" in2="BackgroundImageFix" result="effect1_dropShadow_34_4"/>
<feBlend mode="normal" in="SourceGraphic" in2="effect1_dropShadow_34_4" result="shape"/>
</filter>
<filter id="filter4_d_34_4" x="40.7084" y="3.57678" width="11.7133" height="29.8452" filterUnits="userSpaceOnUse" color-interpolation-filters="sRGB">
<feFlood flood-opacity="0" result="BackgroundImageFix"/>
<feColorMatrix in="SourceAlpha" type="matrix" values="0 0 0 0 0 0 0 0 0 0 0 0 0 0 0 0 0 0 127 0" result="hardAlpha"/>
<feOffset dy="4"/>
<feGaussianBlur stdDeviation="2"/>
<feComposite in2="hardAlpha" operator="out"/>
<feColorMatrix type="matrix" values="0 0 0 0 0 0 0 0 0 0 0 0 0 0 0 0 0 0 0.25 0"/>
<feBlend mode="normal" in2="BackgroundImageFix" result="effect1_dropShadow_34_4"/>
<feBlend mode="normal" in="SourceGraphic" in2="effect1_dropShadow_34_4" result="shape"/>
</filter>
<filter id="filter5_d_34_4" x="47.0415" y="9.62842" width="22.1425" height="24.0884" filterUnits="userSpaceOnUse" color-interpolation-filters="sRGB">
<feFlood flood-opacity="0" result="BackgroundImageFix"/>
<feColorMatrix in="SourceAlpha" type="matrix" values="0 0 0 0 0 0 0 0 0 0 0 0 0 0 0 0 0 0 127 0" result="hardAlpha"/>
<feOffset dy="4"/>
<feGaussianBlur stdDeviation="2"/>
<feComposite in2="hardAlpha" operator="out"/>
<feColorMatrix type="matrix" values="0 0 0 0 0 0 0 0 0 0 0 0 0 0 0 0 0 0 0.25 0"/>
<feBlend mode="normal" in2="BackgroundImageFix" result="effect1_dropShadow_34_4"/>
<feBlend mode="normal" in="SourceGraphic" in2="effect1_dropShadow_34_4" result="shape"/>
</filter>
<filter id="filter6_d_34_4" x="63.6572" y="9.33325" width="32.5102" height="24.0887" filterUnits="userSpaceOnUse" color-interpolation-filters="sRGB">
<feFlood flood-opacity="0" result="BackgroundImageFix"/>
<feColorMatrix in="SourceAlpha" type="matrix" values="0 0 0 0 0 0 0 0 0 0 0 0 0 0 0 0 0 0 127 0" result="hardAlpha"/>
<feOffset dy="4"/>
<feGaussianBlur stdDeviation="2"/>
<feComposite in2="hardAlpha" operator="out"/>
<feColorMatrix type="matrix" values="0 0 0 0 0 0 0 0 0 0 0 0 0 0 0 0 0 0 0.25 0"/>
<feBlend mode="normal" in2="BackgroundImageFix" result="effect1_dropShadow_34_4"/>
<feBlend mode="normal" in="SourceGraphic" in2="effect1_dropShadow_34_4" result="shape"/>
</filter>
<filter id="filter7_d_34_4" x="90.3298" y="4.19666" width="11.8992" height="29.2253" filterUnits="userSpaceOnUse" color-interpolation-filters="sRGB">
<feFlood flood-opacity="0" result="BackgroundImageFix"/>
<feColorMatrix in="SourceAlpha" type="matrix" values="0 0 0 0 0 0 0 0 0 0 0 0 0 0 0 0 0 0 127 0" result="hardAlpha"/>
<feOffset dy="4"/>
<feGaussianBlur stdDeviation="2"/>
<feComposite in2="hardAlpha" operator="out"/>
<feColorMatrix type="matrix" values="0 0 0 0 0 0 0 0 0 0 0 0 0 0 0 0 0 0 0.25 0"/>
<feBlend mode="normal" in2="BackgroundImageFix" result="effect1_dropShadow_34_4"/>
<feBlend mode="normal" in="SourceGraphic" in2="effect1_dropShadow_34_4" result="shape"/>
</filter>
<filter id="filter8_d_34_4" x="96.4051" y="9.33325" width="22.4212" height="24.0887" filterUnits="userSpaceOnUse" color-interpolation-filters="sRGB">
<feFlood flood-opacity="0" result="BackgroundImageFix"/>
<feColorMatrix in="SourceAlpha" type="matrix" values="0 0 0 0 0 0 0 0 0 0 0 0 0 0 0 0 0 0 127 0" result="hardAlpha"/>
<feOffset dy="4"/>
<feGaussianBlur stdDeviation="2"/>
<feComposite in2="hardAlpha" operator="out"/>
<feColorMatrix type="matrix" values="0 0 0 0 0 0 0 0 0 0 0 0 0 0 0 0 0 0 0.25 0"/>
<feBlend mode="normal" in2="BackgroundImageFix" result="effect1_dropShadow_34_4"/>
<feBlend mode="normal" in="SourceGraphic" in2="effect1_dropShadow_34_4" result="shape"/>
</filter>
<filter id="filter9_d_34_4" x="112.365" y="9.33325" width="24.8352" height="24.3835" filterUnits="userSpaceOnUse" color-interpolation-filters="sRGB">
<feFlood flood-opacity="0" result="BackgroundImageFix"/>
<feColorMatrix in="SourceAlpha" type="matrix" values="0 0 0 0 0 0 0 0 0 0 0 0 0 0 0 0 0 0 127 0" result="hardAlpha"/>
<feOffset dy="4"/>
<feGaussianBlur stdDeviation="2"/>
<feComposite in2="hardAlpha" operator="out"/>
<feColorMatrix type="matrix" values="0 0 0 0 0 0 0 0 0 0 0 0 0 0 0 0 0 0 0.25 0"/>
<feBlend mode="normal" in2="BackgroundImageFix" result="effect1_dropShadow_34_4"/>
<feBlend mode="normal" in="SourceGraphic" in2="effect1_dropShadow_34_4" result="shape"/>
</filter>
<filter id="filter10_d_34_4" x="130.755" y="9.62842" width="22.143" height="24.0884" filterUnits="userSpaceOnUse" color-interpolation-filters="sRGB">
<feFlood flood-opacity="0" result="BackgroundImageFix"/>
<feColorMatrix in="SourceAlpha" type="matrix" values="0 0 0 0 0 0 0 0 0 0 0 0 0 0 0 0 0 0 127 0" result="hardAlpha"/>
<feOffset dy="4"/>
<feGaussianBlur stdDeviation="2"/>
<feComposite in2="hardAlpha" operator="out"/>
<feColorMatrix type="matrix" values="0 0 0 0 0 0 0 0 0 0 0 0 0 0 0 0 0 0 0.25 0"/>
<feBlend mode="normal" in2="BackgroundImageFix" result="effect1_dropShadow_34_4"/>
<feBlend mode="normal" in="SourceGraphic" in2="effect1_dropShadow_34_4" result="shape"/>
</filter>
<filter id="filter11_d_34_4" x="146.13" y="9.33325" width="21.0623" height="24.3835" filterUnits="userSpaceOnUse" color-interpolation-filters="sRGB">
<feFlood flood-opacity="0" result="BackgroundImageFix"/>
<feColorMatrix in="SourceAlpha" type="matrix" values="0 0 0 0 0 0 0 0 0 0 0 0 0 0 0 0 0 0 127 0" result="hardAlpha"/>
<feOffset dy="4"/>
<feGaussianBlur stdDeviation="2"/>
<feComposite in2="hardAlpha" operator="out"/>
<feColorMatrix type="matrix" values="0 0 0 0 0 0 0 0 0 0 0 0 0 0 0 0 0 0 0.25 0"/>
<feBlend mode="normal" in2="BackgroundImageFix" result="effect1_dropShadow_34_4"/>
<feBlend mode="normal" in="SourceGraphic" in2="effect1_dropShadow_34_4" result="shape"/>
</filter>
</defs>
</svg>
